<svg xmlns="http://www.w3.org/2000/svg" aria-hidden="true" style="position:absolute;width:0;height:0;overflow:hidden">
  <defs>
    <symbol id="icon-vector_creators" viewBox="0 0 38 32">
      <path d="M36.426 4.105a3.185 3.185 0 0 0-3.488.694L28.8 8.937l-7.338-7.338a3.2 3.2 0 0 0-4.524 0L9.6 8.937 5.462 4.799a3.203 3.203 0 0 0-4.923.485A3.196 3.196 0 0 0 0 7.061v16.938a8.01 8.01 0 0 0 8 8h22.4a8.01 8.01 0 0 0 8-8V7.061a3.196 3.196 0 0 0-1.975-2.957z"/>
    </symbol>
    <symbol id="icon-vector_holders" viewBox="0 0 32 32">
      <path d="M1.769 16.533 6.516 20l-1.803 5.583a4.244 4.244 0 0 0 1.578 4.818 4.236 4.236 0 0 0 5.067-.026l4.641-3.416 4.643 3.412a4.308 4.308 0 0 0 5.066.025 4.297 4.297 0 0 0 1.579-4.812l-1.803-5.583 4.747-3.467a4.308 4.308 0 0 0-.01-6.954 4.311 4.311 0 0 0-2.524-.823h-5.831l-1.769-5.515A4.307 4.307 0 0 0 16 .252a4.296 4.296 0 0 0-4.097 2.99l-1.769 5.515H4.309a4.305 4.305 0 0 0-2.534 7.777H1.77z"/>
    </symbol>
    <symbol id="icon-arrow-right" viewBox="0 0 32 32">
      <path fill="#2278d4" d="M17.415 5.252a2 2 0 1 0-2.828 2.828l5.919 5.919H6.668a2 2 0 1 0 0 4h13.838l-5.919 5.919a2 2 0 1 0 2.828 2.828l9.333-9.333a1.983 1.983 0 0 0 .586-1.415 1.99 1.99 0 0 0-.586-1.415L17.415 5.25z" style="fill:var(--color1, #2278d4)"/>
    </symbol>
    <symbol id="icon-buy_arrow" viewBox="0 0 32 32">
      <path fill="none" stroke="#22a75d" stroke-linecap="round" stroke-linejoin="round" stroke-width="4" d="m12 24 8-8-8-8" style="stroke:var(--color2, #22a75d)"/>
    </symbol>
    <symbol id="icon-design_footer" viewBox="0 0 31 32">
      <path fill="#fff" d="M26.64 16.191c-.903.112-1.823.169-2.754.169-6.214 0-11.856-2.559-16.02-6.727 2.539 7.189 8.231 12.777 15.318 14.92a22.136 22.136 0 0 0 4.44.86l.006-.009c1.834-2.64 2.916-5.89 2.916-9.406 0-.218-.004-.436-.012-.652a22.102 22.102 0 0 1-3.893.843z" style="fill:var(--color3, #fff)"/>
      <path fill="#fff" d="M3.904 16c0 6.578 5.09 11.91 11.368 11.91 2.302 0 4.444-.717 6.234-1.948a14.652 14.652 0 0 0 4.565 1.353c-2.764 2.895-6.582 4.686-10.799 4.686-8.435 0-15.273-7.163-15.273-16s6.838-16 15.273-16c7.543 0 13.808 5.728 15.049 13.259a14.597 14.597 0 0 1-3.834.783c-.89-5.647-5.573-9.952-11.215-9.952-6.279 0-11.368 5.332-11.368 11.91z" style="fill:var(--color3, #fff)"/>
    </symbol>
    <symbol id="icon-ForCreators" viewBox="0 0 32 32">
      <path fill="#22a75d" d="M25.333 12a9.333 9.333 0 1 1-18.666 0 9.333 9.333 0 1 1 18.666 0z" style="fill:var(--color2, #22a75d)"/>
    </symbol>
    <symbol id="icon-ForHolders" viewBox="0 0 32 32">
      <path fill="#2278d4" d="M25.333 12a9.333 9.333 0 1 1-18.666 0 9.333 9.333 0 1 1 18.666 0z" style="fill:var(--color1, #2278d4)"/>
    </symbol>
    <symbol id="icon-github" viewBox="0 0 32 32">
      <path fill="#fff" d="M16 .667C7.16.667 0 7.707 0 16.39c0 6.948 4.584 12.84 10.94 14.917.8.148 1.093-.339 1.093-.756 0-.373-.013-1.363-.02-2.673-4.451.948-5.389-2.109-5.389-2.109-.728-1.815-1.78-2.3-1.78-2.3-1.449-.975.112-.955.112-.955 1.607.109 2.451 1.62 2.451 1.62 1.427 2.404 3.745 1.709 4.66 1.308.144-1.017.556-1.709 1.013-2.103-3.553-.393-7.288-1.745-7.288-7.769 0-1.716.62-3.119 1.647-4.219-.18-.397-.72-1.996.14-4.161 0 0 1.34-.421 4.4 1.612 1.28-.349 2.64-.523 4-.531 1.36.008 2.72.181 4 .531 3.04-2.033 4.38-1.612 4.38-1.612.86 2.165.32 3.764.16 4.161 1.02 1.1 1.64 2.503 1.64 4.219 0 6.04-3.74 7.369-7.3 7.756.56.472 1.08 1.436 1.08 2.909 0 2.104-.02 3.795-.02 4.305 0 .412.28.904 1.1.747C27.42 29.223 32 23.327 32 16.39 32 7.707 24.836.667 16 .667z" style="fill:var(--color3, #fff)"/>
    </symbol>
    <symbol id="icon-instagram" viewBox="0 0 32 32">
      <path fill="none" stroke="#fff" stroke-linecap="round" stroke-linejoin="round" stroke-width="3.2" d="M22.666 2.666H9.333a6.667 6.667 0 0 0-6.667 6.667v13.333a6.667 6.667 0 0 0 6.667 6.667h13.333a6.667 6.667 0 0 0 6.667-6.667V9.333a6.667 6.667 0 0 0-6.667-6.667z" style="stroke:var(--color3, #fff)"/>
      <path fill="none" stroke="#fff" stroke-linecap="round" stroke-linejoin="round" stroke-width="3.2" d="M21.333 15.16a5.336 5.336 0 0 1-6.123 6.049 5.334 5.334 0 0 1-3.916-7.663 5.338 5.338 0 0 1 5.547-2.878 5.334 5.334 0 0 1 4.493 4.493zM23.334 8.666h.013" style="stroke:var(--color3, #fff)"/>
    </symbol>
    <symbol id="icon-logo" viewBox="0 0 201 32">
      <path fill="#0b92d2" d="M9.493 11.432H0l10.02 20.567h9.493L9.493 11.432z" style="fill:var(--color4, #0b92d2)"/>
      <path fill="#137bc0" d="M29.005 6.159h-9.493L30.235 32h9.493L29.005 6.159z" style="fill:var(--color5, #137bc0)"/>
      <path fill="#0e763f" d="M19.513 6.159h9.493L19.513 32H10.02l9.493-25.841z" style="fill:var(--color6, #0e763f)"/>
      <path fill="#ffd100" d="M14.1 20.891 10.019 32h9.493L14.1 20.891z" style="fill:var(--color7, #ffd100)"/>
      <path fill="#ffd100" d="M10.02 32h9.493l-5.412-11.109L10.02 32z" style="fill:var(--color7, #ffd100)"/>
      <path fill="#e20613" d="M40.959.533h9.493L39.553 31.999H30.06L40.959.533z" style="fill:var(--color8, #e20613)"/>
      <path fill="#0e4b9c" d="M34.459 19.301 30.14 31.769l.096.231h9.493l-.096-.231-5.174-12.468z" style="fill:var(--color9, #0e4b9c)"/>
      <path fill="#0e4b9c" d="m39.553 32 .08-.231-5.174-12.468L30.06 32h9.493z" style="fill:var(--color9, #0e4b9c)"/>
      <path fill="#fff" d="M66.005 13.978h-7.339v-4.13h19.985v4.13h-7.339V31.75h-5.308V13.978zM87.742 32c-1.857 0-3.527-.365-5.013-1.095-1.463-.751-2.61-1.783-3.44-3.098s-1.245-2.806-1.245-4.474c0-1.669.415-3.16 1.245-4.474s1.977-2.336 3.44-3.066c1.485-.751 3.156-1.126 5.013-1.126s3.516.375 4.98 1.126c1.463.73 2.61 1.752 3.44 3.066s1.245 2.806 1.245 4.474c0 1.669-.415 3.16-1.245 4.474s-1.977 2.347-3.44 3.098c-1.463.73-3.123 1.095-4.98 1.095zm0-4.005c1.311 0 2.381-.417 3.211-1.252.852-.855 1.278-1.992 1.278-3.41s-.426-2.545-1.278-3.379c-.83-.855-1.9-1.283-3.211-1.283s-2.392.428-3.243 1.283c-.852.834-1.278 1.961-1.278 3.379s.426 2.555 1.278 3.41c.852.834 1.933 1.252 3.243 1.252zM108.391 25.148l-2.457 2.315v4.287h-5.111V8.534h5.111v13.141l7.469-6.758h6.094l-7.339 7.134 7.995 9.7h-6.192l-5.57-6.602zM133.037 14.666c2.185 0 3.942.626 5.275 1.877 1.355 1.252 2.032 3.108 2.032 5.569v9.637h-5.111v-8.886c0-1.335-.306-2.326-.917-2.972-.611-.668-1.497-1.001-2.654-1.001-1.289 0-2.315.386-3.079 1.158-.765.751-1.147 1.877-1.147 3.379v8.323h-5.11V14.917h4.881v1.971c.677-.709 1.518-1.252 2.523-1.627 1.005-.396 2.108-.595 3.309-.595zM162.433 23.396c0 .063-.032.501-.098 1.314h-13.334c.241 1.043.809 1.867 1.705 2.472.895.605 2.009.907 3.341.907.917 0 1.726-.125 2.425-.375a6.102 6.102 0 0 0 1.999-1.252l2.719 2.816c-1.66 1.815-4.084 2.722-7.273 2.722-1.988 0-3.746-.365-5.275-1.095-1.53-.751-2.709-1.783-3.539-3.098s-1.245-2.806-1.245-4.474c0-1.648.404-3.129 1.213-4.443a8.445 8.445 0 0 1 3.374-3.098c1.442-.751 3.047-1.126 4.816-1.126 1.726 0 3.287.355 4.686 1.064a7.837 7.837 0 0 1 3.276 3.066c.809 1.314 1.212 2.847 1.212 4.599zm-9.14-5.038c-1.157 0-2.129.313-2.916.939-.786.626-1.266 1.481-1.441 2.566h8.682c-.174-1.064-.655-1.909-1.441-2.534-.786-.647-1.747-.97-2.883-.97zM170.718 17.138c.611-.814 1.43-1.429 2.458-1.846 1.047-.417 2.25-.626 3.603-.626v4.506a19.13 19.13 0 0 0-1.147-.063c-1.463 0-2.61.396-3.44 1.189-.83.772-1.245 1.94-1.245 3.504v7.947h-5.111V14.916h4.882v2.222zM185.811 32a18.4 18.4 0 0 1-4.291-.501c-1.398-.355-2.512-.793-3.342-1.314l1.703-3.504c.786.48 1.737.876 2.85 1.189 1.115.292 2.206.438 3.277.438 2.162 0 3.244-.511 3.244-1.533 0-.48-.295-.824-.885-1.033s-1.495-.386-2.719-.532c-1.442-.209-2.633-.449-3.571-.72s-1.758-.751-2.458-1.439c-.676-.688-1.015-1.669-1.015-2.941 0-1.064.317-2.002.95-2.816.655-.834 1.595-1.481 2.817-1.94 1.246-.459 2.709-.688 4.39-.688 1.245 0 2.479.136 3.702.407 1.245.25 2.272.605 3.079 1.064l-1.703 3.473c-1.551-.834-3.244-1.252-5.078-1.252-1.092 0-1.91.146-2.457.438s-.819.668-.819 1.126c0 .521.294.887.884 1.095s1.529.407 2.818.594c1.441.229 2.621.48 3.538.751.917.25 1.714.72 2.391 1.408s1.015 1.648 1.015 2.879a4.32 4.32 0 0 1-.982 2.785c-.656.813-1.617 1.45-2.883 1.909-1.245.438-2.731.657-4.457.657z" style="fill:var(--color3, #fff)"/>
    </symbol>
    <symbol id="icon-medium" viewBox="0 0 32 32">
      <path fill="#fff" d="M29.447 6.31 32 3.867v-.535h-8.845l-6.304 15.691L9.679 3.332H.404v.535l2.983 3.591c.291.265.443.653.404 1.044v14.111a1.607 1.607 0 0 1-.431 1.4L0 28.085v.528h9.527v-.535l-3.36-4.065a1.66 1.66 0 0 1-.463-1.4V10.408l8.363 18.212h.972l7.191-18.212v14.508c0 .383 0 .461-.251.712l-2.587 2.503v.536h12.549v-.535l-2.493-2.441a.74.74 0 0 1-.285-.712V7.023a.737.737 0 0 1 .284-.712z" style="fill:var(--color3, #fff)"/>
    </symbol>
    <symbol id="icon-only_logo" viewBox="0 0 50 32">
      <path fill="#0b92d2" d="M9.613 11.482H.28l9.851 20.221h9.333L9.613 11.482z" style="fill:var(--color4, #0b92d2)"/>
      <path fill="#137bc0" d="M28.797 6.298h-9.333l10.542 25.406h9.333L28.796 6.298z" style="fill:var(--color5, #137bc0)"/>
      <path fill="#0e763f" d="M19.465 6.298h9.333l-9.333 25.406h-9.333l9.333-25.406z" style="fill:var(--color6, #0e763f)"/>
      <path fill="#ffd100" d="m14.144 20.782-4.012 10.921h9.333l-5.321-10.921z" style="fill:var(--color7, #ffd100)"/>
      <path fill="#ffd100" d="M10.132 31.703h9.333l-5.321-10.921-4.012 10.921z" style="fill:var(--color7, #ffd100)"/>
      <path fill="#e20613" d="M40.549.767h9.333L39.167 31.703h-9.333L40.549.767z" style="fill:var(--color8, #e20613)"/>
      <path fill="#0e4b9c" d="m34.159 19.218-4.246 12.258.094.227h9.333l-5.181-12.485z" style="fill:var(--color9, #0e4b9c)"/>
      <path fill="#0e4b9c" d="m39.167 31.703.079-.227-5.087-12.258-4.325 12.485h9.333z" style="fill:var(--color9, #0e4b9c)"/>
    </symbol>
    <symbol id="icon-reddit" viewBox="0 0 32 32">
      <path fill="#fff" d="M28.433 12.411c-1.011 0-1.9.425-2.555 1.088-2.407-1.691-5.652-2.779-9.248-2.895l1.868-8.541 5.948 1.355c0 1.477 1.187 2.684 2.643 2.684 1.484 0 2.677-1.239 2.677-2.717S28.581.668 27.09.668c-1.039 0-1.935.636-2.381 1.505L18.14.696c-.331-.089-.655.151-.743.487l-2.051 9.416c-3.568.151-6.779 1.237-9.193 2.929a3.563 3.563 0 0 0-2.589-1.116c-3.749 0-4.977 5.105-1.544 6.851a7.794 7.794 0 0 0-.176 1.691c0 5.735 6.367 10.381 14.184 10.381 7.851 0 14.217-4.647 14.217-10.381 0-.575-.06-1.177-.208-1.719 3.364-1.752 2.125-6.82-1.604-6.823zM7.468 19.624c0-1.505 1.187-2.717 2.677-2.717 1.456 0 2.644 1.204 2.644 2.717 0 1.479-1.187 2.684-2.644 2.684-1.484.007-2.677-1.205-2.677-2.684zm14.452 6.398c-2.455 2.491-9.381 2.491-11.837 0-.271-.24-.271-.664 0-.937a.641.641 0 0 1 .891 0c1.875 1.951 8.093 1.984 10.049 0a.641.641 0 0 1 .891 0c.276.275.276.699.007.937zm-.055-3.708c-1.456 0-2.643-1.204-2.643-2.681 0-1.505 1.187-2.717 2.643-2.717 1.484 0 2.677 1.204 2.677 2.717-.007 1.471-1.193 2.681-2.677 2.681z" style="fill:var(--color3, #fff)"/>
    </symbol>
    <symbol id="icon-service_dot" viewBox="0 0 32 32">
      <path fill="#22a75d" d="M0 16c0 8.837 7.163 16 16 16s16-7.163 16-16S24.837 0 16 0 0 7.163 0 16z" style="fill:var(--color2, #22a75d)"/>
    </symbol>
    <symbol id="icon-service_q" viewBox="0 0 32 32">
      <path fill="#22a75d" d="M25.939 12.364c0 5.489-4.45 9.939-9.939 9.939-9.939 0-9.939 0-9.939-9.939 0-5.489 4.45-9.939 9.939-9.939s9.939 4.45 9.939 9.939z" style="fill:var(--color2, #22a75d)"/>
    </symbol>
    <symbol id="icon-telegram" viewBox="0 0 32 32">
      <path fill="#fff" d="m12.87 20.342-.481 6.769c.688 0 .987-.296 1.344-.651l3.228-3.085 6.689 4.898c1.227.684 2.091.324 2.422-1.129L30.464 6.57c.389-1.813-.656-2.522-1.851-2.078l-25.807 9.88c-1.761.684-1.735 1.666-.299 2.11l6.598 2.052L24.43 8.945c.721-.478 1.377-.213.838.264L12.871 20.34z" style="fill:var(--color3, #fff)"/>
    </symbol>
    <symbol id="icon-twitter" viewBox="0 0 32 32">
      <path fill="#fff" d="M30.667 4a14.53 14.53 0 0 1-4.187 2.04 5.975 5.975 0 0 0-6.637-1.661A5.979 5.979 0 0 0 16 10.04v1.333a14.211 14.211 0 0 1-12-6.04s-5.333 12 6.667 17.333a15.519 15.519 0 0 1-9.333 2.667c12 6.667 26.667 0 26.667-15.333a5.966 5.966 0 0 0-.107-1.107A10.288 10.288 0 0 0 30.667 4z" style="fill:var(--color3, #fff)"/>
    </symbol>
  </defs>
</svg>